# 3ds Max Wavefront OBJ Exporter v0.97b - (c)2007 guruware
# File Created: 24.10.2012 13:14:58

#
# object Sphere001
#

v  0.000 0.462 -0.000
v  -0.000 -0.000 -0.462
v  -0.462 -0.000 0.000
v  0.000 -0.000 0.462
v  0.462 -0.000 -0.000
v  0.000 -0.462 -0.000
# 6 vertices

vn -0.000 1.000 -0.000
vn -0.000 -0.000 -1.000
vn -1.000 -0.000 0.000
vn 0.000 -0.000 1.000
vn 1.000 -0.000 -0.000
vn 0.000 -1.000 0.000
# 6 vertex normals

vt 0.000 1.000 0.000
vt 0.000 0.500 0.000
vt 0.250 0.500 0.000
vt 0.250 1.000 0.000
vt 0.500 0.500 0.000
vt 0.500 1.000 0.000
vt 0.750 0.500 0.000
vt 0.750 1.000 0.000
vt 1.000 0.500 0.000
vt 0.000 0.000 0.000
vt 0.250 0.000 0.000
vt 0.500 0.000 0.000
vt 0.750 0.000 0.000
# 13 texture coords

g Sphere001
f 1/1/1 2/2/2 3/3/3 
f 1/4/1 3/3/3 4/5/4 
f 1/6/1 4/5/4 5/7/5 
f 1/8/1 5/7/5 2/9/2 
f 6/10/6 3/3/3 2/2/2 
f 6/11/6 4/5/4 3/3/3 
f 6/12/6 5/7/5 4/5/4 
f 6/13/6 2/9/2 5/7/5 
# 8 faces

