# 3ds Max Wavefront OBJ Exporter v0.94b - (c)2007 guruware
# File Created: 01.12.2012 04:40:44

#
# object Sphere02
#

v  -0.000 0.501 0.015
v  0.449 0.452 0.015
v  0.405 0.452 -0.180
v  0.224 0.461 -0.315
v  0.208 0.456 -0.383
v  0.100 0.452 -0.423
v  -0.100 0.452 -0.423
v  -0.477 0.452 -0.475
v  -0.373 0.298 -0.155
v  -0.449 0.452 0.015
v  -0.375 0.286 0.189
v  -0.519 0.452 0.467
v  -0.100 0.452 0.453
v  0.100 0.452 0.453
v  0.405 0.452 0.210
v  0.730 0.312 -0.337
v  0.810 0.312 0.015
v  -0.175 0.312 -0.709
v  0.186 0.312 -0.709
v  -0.701 0.312 -0.756
v  -0.587 0.207 -0.258
v  -0.810 0.312 0.015
v  -0.581 0.198 0.288
v  -0.744 0.312 0.749
v  -0.180 0.312 0.718
v  0.180 0.312 0.718
v  0.707 0.312 0.350
v  0.910 0.112 -0.423
v  1.010 0.112 0.015
v  0.630 0.112 -0.775
v  0.505 0.312 -0.618
v  0.230 0.112 -0.904
v  -0.219 0.112 -0.904
v  -0.826 0.112 -0.913
v  -0.707 0.074 -0.316
v  -1.010 0.112 0.015
v  -0.695 0.071 0.343
v  -0.869 0.112 0.905
v  -0.224 0.112 0.913
v  0.225 0.112 0.913
v  0.629 0.112 0.755
v  0.504 0.312 0.599
v  0.887 0.112 0.437
v  0.910 -0.112 -0.423
v  1.010 -0.112 0.015
v  0.630 -0.112 -0.775
v  0.230 -0.112 -0.904
v  -0.219 -0.112 -0.904
v  -0.826 -0.112 -0.913
v  -0.707 -0.074 -0.316
v  -1.010 -0.112 0.015
v  -0.695 -0.071 0.343
v  -0.869 -0.112 0.905
v  -0.224 -0.112 0.913
v  0.225 -0.112 0.913
v  0.629 -0.112 0.755
v  0.887 -0.112 0.437
v  0.730 -0.312 -0.337
v  0.810 -0.312 0.015
v  0.505 -0.312 -0.618
v  0.186 -0.312 -0.709
v  -0.175 -0.312 -0.709
v  -0.701 -0.312 -0.756
v  -0.587 -0.207 -0.258
v  -0.810 -0.312 0.015
v  -0.581 -0.198 0.288
v  -0.744 -0.312 0.749
v  -0.180 -0.312 0.718
v  0.180 -0.312 0.718
v  0.504 -0.312 0.599
v  0.707 -0.312 0.350
v  0.405 -0.452 -0.180
v  0.449 -0.452 0.015
v  0.280 -0.452 -0.337
v  0.100 -0.452 -0.423
v  -0.100 -0.452 -0.423
v  -0.477 -0.452 -0.475
v  -0.373 -0.298 -0.155
v  -0.449 -0.452 0.015
v  -0.375 -0.286 0.189
v  -0.519 -0.452 0.467
v  -0.100 -0.452 0.453
v  0.100 -0.452 0.453
v  0.280 -0.452 0.366
v  0.405 -0.452 0.210
v  -0.000 -0.501 0.015
v  0.366 0.454 -0.236
v  0.308 0.459 -0.242
v  0.402 0.356 -0.571
v  0.476 0.345 -0.541
v  0.202 0.442 -0.432
v  0.337 0.501 -0.367
v  0.443 0.477 -0.367
v  0.433 0.477 -0.413
v  0.403 0.477 -0.450
v  0.361 0.477 -0.471
v  0.313 0.477 -0.471
v  0.271 0.477 -0.450
v  0.241 0.477 -0.413
v  0.231 0.477 -0.367
v  0.241 0.477 -0.321
v  0.271 0.477 -0.284
v  0.313 0.477 -0.263
v  0.361 0.477 -0.263
v  0.403 0.477 -0.284
v  0.433 0.477 -0.321
v  0.510 0.409 -0.450
v  0.529 0.409 -0.367
v  0.457 0.409 -0.517
v  0.380 0.409 -0.554
v  0.294 0.409 -0.554
v  0.218 0.409 -0.517
v  0.214 0.406 -0.514
v  0.259 0.461 -0.269
v  0.439 0.431 -0.239
v  0.504 0.403 -0.272
v  0.510 0.409 -0.284
v  0.550 0.365 -0.367
v  0.537 0.345 -0.464
v  0.290 0.372 -0.571
v  0.229 0.446 0.442
v  0.236 0.405 0.532
v  0.314 0.363 0.595
v  0.236 0.457 0.388
v  0.265 0.461 0.309
v  0.308 0.459 0.274
v  0.359 0.455 0.257
v  0.394 0.450 0.253
v  0.468 0.425 0.253
v  0.506 0.409 0.268
v  0.543 0.388 0.299
v  0.581 0.351 0.386
v  0.569 0.328 0.486
v  0.505 0.328 0.566
v  0.427 0.341 0.597
v  0.361 0.501 0.386
v  0.468 0.477 0.386
v  0.457 0.477 0.340
v  0.428 0.477 0.303
v  0.385 0.477 0.283
v  0.338 0.477 0.283
v  0.295 0.477 0.303
v  0.266 0.477 0.340
v  0.255 0.477 0.386
v  0.266 0.477 0.432
v  0.295 0.477 0.469
v  0.338 0.477 0.490
v  0.385 0.477 0.490
v  0.428 0.477 0.469
v  0.457 0.477 0.432
v  0.534 0.409 0.303
v  0.553 0.409 0.386
v  0.242 0.409 0.536
v  0.319 0.409 0.573
v  0.404 0.409 0.573
v  0.481 0.409 0.536
v  0.534 0.409 0.469
# 157 vertices

vn -0.121 0.993 -0.004
vn 0.459 0.888 -0.000
vn 0.424 0.894 -0.143
vn 0.112 0.979 -0.168
vn 0.063 0.944 -0.322
vn 0.023 0.872 -0.490
vn 0.027 0.874 -0.486
vn -0.506 0.854 -0.120
vn -0.698 0.694 -0.175
vn -0.377 0.926 -0.012
vn -0.668 0.697 0.260
vn -0.605 0.796 0.026
vn 0.008 0.864 0.503
vn 0.042 0.859 0.511
vn 0.427 0.897 0.114
vn 0.722 0.602 -0.341
vn 0.797 0.603 0.027
vn 0.028 0.565 -0.825
vn 0.103 0.562 -0.820
vn -0.645 0.592 -0.484
vn -0.830 0.531 -0.173
vn -0.743 0.669 -0.022
vn -0.808 0.542 0.231
vn -0.709 0.593 0.382
vn 0.021 0.558 0.829
vn 0.133 0.542 0.830
vn 0.726 0.581 0.368
vn 0.880 0.216 -0.424
vn 0.976 0.216 0.029
vn 0.558 0.214 -0.802
vn 0.465 0.572 -0.675
vn 0.151 0.214 -0.965
vn 0.007 0.218 -0.976
vn -0.741 0.216 -0.635
vn -0.952 0.189 -0.239
vn -0.971 0.237 0.001
vn -0.954 0.193 0.227
vn -0.788 0.217 0.577
vn 0.004 0.208 0.978
vn 0.181 0.217 0.959
vn 0.575 0.217 0.789
vn 0.504 0.496 0.707
vn 0.865 0.217 0.452
vn 0.880 -0.216 -0.424
vn 0.976 -0.215 0.028
vn 0.555 -0.217 -0.803
vn 0.154 -0.217 -0.964
vn 0.017 -0.207 -0.978
vn -0.752 -0.218 -0.622
vn -0.943 -0.197 -0.269
vn -0.971 -0.237 0.021
vn -0.964 -0.183 0.195
vn -0.778 -0.213 0.591
vn -0.006 -0.218 0.976
vn 0.179 -0.215 0.960
vn 0.577 -0.215 0.788
vn 0.865 -0.215 0.453
vn 0.715 -0.609 -0.344
vn 0.794 -0.607 0.027
vn 0.449 -0.596 -0.666
vn 0.119 -0.573 -0.811
vn 0.042 -0.566 -0.823
vn -0.670 -0.603 -0.434
vn -0.788 -0.553 -0.272
vn -0.743 -0.668 0.047
vn -0.851 -0.511 0.124
vn -0.690 -0.579 0.435
vn 0.015 -0.550 0.835
vn 0.150 -0.567 0.810
vn 0.475 -0.587 0.656
vn 0.708 -0.599 0.374
vn 0.413 -0.888 -0.199
vn 0.464 -0.886 0.007
vn 0.286 -0.888 -0.359
vn 0.091 -0.870 -0.485
vn 0.031 -0.875 -0.483
vn -0.559 -0.823 -0.099
vn -0.635 -0.712 -0.299
vn -0.374 -0.927 0.030
vn -0.725 -0.677 0.125
vn -0.557 -0.830 0.026
vn 0.010 -0.865 0.502
vn 0.113 -0.853 0.510
vn 0.297 -0.869 0.396
vn 0.430 -0.878 0.209
vn -0.116 -0.993 -0.003
vn 0.290 0.951 -0.105
vn -0.158 0.871 0.465
vn 0.246 0.657 -0.712
vn 0.489 0.740 -0.461
vn 0.107 0.796 -0.596
vn 0.000 1.000 -0.000
vn 0.691 0.723 -0.000
vn 0.622 0.723 -0.300
vn 0.431 0.723 -0.540
vn 0.154 0.723 -0.673
vn -0.154 0.723 -0.673
vn -0.431 0.723 -0.540
vn -0.622 0.723 -0.300
vn -0.708 0.706 0.007
vn -0.625 0.718 0.307
vn -0.434 0.722 0.539
vn -0.154 0.723 0.673
vn 0.155 0.722 0.674
vn 0.430 0.723 0.541
vn 0.622 0.723 0.300
vn 0.837 0.370 -0.403
vn 0.929 0.370 -0.000
vn 0.579 0.370 -0.726
vn 0.205 0.360 -0.910
vn -0.207 0.370 -0.906
vn -0.623 0.309 -0.718
vn -0.745 0.187 -0.641
vn -0.730 0.514 -0.451
vn -0.867 0.488 -0.099
vn -0.802 0.491 0.340
vn -0.534 0.519 0.668
vn -0.171 0.519 0.838
vn 0.237 0.517 0.822
vn 0.604 0.506 0.615
vn 0.788 0.187 0.587
vn 0.844 0.309 0.437
vn 0.974 0.216 -0.074
vn 0.862 0.227 -0.454
vn 0.625 0.227 -0.747
vn 0.296 0.204 -0.933
vn -0.124 0.200 -0.972
vn 0.177 0.978 -0.107
vn 0.525 0.761 -0.380
vn 0.565 0.778 -0.274
vn 0.535 0.734 -0.419
vn 0.568 0.787 -0.239
vn 0.052 0.713 -0.699
vn 0.163 0.670 -0.724
vn 0.110 0.814 0.571
vn -0.089 0.709 0.700
vn 0.217 0.598 0.772
vn 0.087 0.961 0.262
vn 0.157 0.978 0.136
vn 0.189 0.978 0.087
vn 0.183 0.983 0.007
vn 0.425 0.889 0.170
vn 0.681 0.727 -0.083
vn 0.727 0.603 -0.329
vn 0.599 0.736 0.316
vn 0.571 0.721 0.393
vn 0.635 0.586 0.503
vn 0.586 0.574 0.572
vn 0.052 0.100 0.994
vn -0.000 1.000 0.000
vn 0.691 0.723 0.000
vn 0.428 0.720 -0.546
vn 0.161 0.714 -0.681
vn -0.206 0.667 -0.716
vn -0.507 0.637 -0.581
vn -0.674 0.665 -0.322
vn -0.726 0.687 -0.004
vn -0.637 0.710 0.302
vn -0.438 0.720 0.539
vn 0.154 0.723 0.673
vn 0.431 0.723 0.540
vn 0.701 0.442 -0.559
vn 0.604 0.516 -0.607
vn 0.263 0.496 -0.828
vn -0.052 0.486 -0.872
vn -0.313 0.562 -0.765
vn -0.651 0.522 -0.551
vn -0.895 0.446 -0.005
vn -0.763 0.508 0.400
vn -0.669 0.205 0.714
vn -0.607 0.233 0.759
vn -0.216 0.365 0.906
vn 0.206 0.364 0.909
vn 0.579 0.370 0.726
vn 0.837 0.370 0.403
vn 0.970 0.226 0.090
vn 0.919 0.226 -0.324
vn -0.113 0.207 0.972
vn 0.298 0.210 0.931
vn 0.628 0.227 0.745
vn 0.860 0.227 0.458
# 181 vertex normals

vt 0.853 0.153 0.000
vt 0.857 0.074 0.000
vt 0.891 0.083 0.000
vt 0.909 0.111 0.000
vt 0.919 0.114 0.000
vt 0.931 0.138 0.000
vt 0.930 0.173 0.000
vt 0.936 0.240 0.000
vt 0.990 0.374 0.000
vt 0.890 0.443 0.000
vt 0.887 0.362 0.000
vt 0.583 0.846 0.000
vt 0.480 0.843 0.000
vt 0.522 0.793 0.000
vt 0.856 0.362 0.000
vt 0.796 0.417 0.000
vt 0.749 0.367 0.000
vt 0.720 0.738 0.000
vt 0.639 0.669 0.000
vt 0.702 0.617 0.000
vt 0.770 0.241 0.000
vt 0.776 0.167 0.000
vt 0.777 0.132 0.000
vt 0.822 0.080 0.000
vt 0.920 0.027 0.000
vt 0.859 0.010 0.000
vt 0.649 0.125 0.000
vt 0.700 0.138 0.000
vt 0.700 0.173 0.000
vt 0.649 0.188 0.000
vt 0.649 0.032 0.000
vt 0.700 0.072 0.000
vt 0.250 0.215 0.000
vt 0.283 0.197 0.000
vt 0.339 0.253 0.000
vt 0.288 0.303 0.000
vt 0.446 0.769 0.000
vt 0.427 0.837 0.000
vt 0.699 0.375 0.000
vt 0.721 0.444 0.000
vt 0.288 0.038 0.000
vt 0.339 0.087 0.000
vt 0.279 0.136 0.000
vt 0.247 0.119 0.000
vt 0.288 0.505 0.000
vt 0.339 0.490 0.000
vt 0.339 0.564 0.000
vt 0.288 0.604 0.000
vt 0.288 0.441 0.000
vt 0.339 0.455 0.000
vt 0.799 0.026 0.000
vt 0.072 0.730 0.000
vt 0.087 0.657 0.000
vt 0.149 0.657 0.000
vt 0.149 0.730 0.000
vt 0.010 0.730 0.000
vt 0.038 0.657 0.000
vt 0.576 0.196 0.000
vt 0.649 0.245 0.000
vt 0.576 0.267 0.000
vt 0.576 0.117 0.000
vt 0.576 0.010 0.000
vt 0.201 0.225 0.000
vt 0.215 0.331 0.000
vt 0.370 0.779 0.000
vt 0.376 0.849 0.000
vt 0.649 0.365 0.000
vt 0.645 0.436 0.000
vt 0.215 0.010 0.000
vt 0.200 0.109 0.000
vt 0.215 0.512 0.000
vt 0.215 0.626 0.000
vt 0.215 0.433 0.000
vt 0.215 0.362 0.000
vt 0.288 0.384 0.000
vt 0.645 0.475 0.000
vt 0.726 0.483 0.000
vt 0.726 0.540 0.000
vt 0.645 0.547 0.000
vt 0.208 0.657 0.000
vt 0.224 0.730 0.000
vt 0.072 0.812 0.000
vt 0.149 0.812 0.000
vt 0.010 0.812 0.000
vt 0.494 0.196 0.000
vt 0.494 0.267 0.000
vt 0.494 0.117 0.000
vt 0.494 0.010 0.000
vt 0.148 0.225 0.000
vt 0.134 0.331 0.000
vt 0.134 0.167 0.000
vt 0.215 0.167 0.000
vt 0.149 0.109 0.000
vt 0.134 0.010 0.000
vt 0.134 0.512 0.000
vt 0.134 0.626 0.000
vt 0.134 0.433 0.000
vt 0.134 0.362 0.000
vt 0.224 0.812 0.000
vt 0.280 0.730 0.000
vt 0.280 0.812 0.000
vt 0.087 0.885 0.000
vt 0.149 0.885 0.000
vt 0.038 0.885 0.000
vt 0.421 0.188 0.000
vt 0.421 0.245 0.000
vt 0.421 0.125 0.000
vt 0.421 0.032 0.000
vt 0.099 0.215 0.000
vt 0.061 0.303 0.000
vt 0.091 0.989 0.000
vt 0.010 0.988 0.000
vt 0.022 0.908 0.000
vt 0.074 0.918 0.000
vt 0.898 0.623 0.000
vt 0.949 0.617 0.000
vt 0.957 0.698 0.000
vt 0.876 0.695 0.000
vt 0.061 0.038 0.000
vt 0.103 0.119 0.000
vt 0.061 0.505 0.000
vt 0.061 0.604 0.000
vt 0.061 0.441 0.000
vt 0.061 0.384 0.000
vt 0.615 0.777 0.000
vt 0.696 0.769 0.000
vt 0.696 0.841 0.000
vt 0.615 0.834 0.000
vt 0.208 0.885 0.000
vt 0.530 0.520 0.000
vt 0.560 0.577 0.000
vt 0.498 0.593 0.000
vt 0.496 0.530 0.000
vt 0.557 0.497 0.000
vt 0.608 0.535 0.000
vt 0.571 0.465 0.000
vt 0.622 0.478 0.000
vt 0.370 0.138 0.000
vt 0.370 0.173 0.000
vt 0.370 0.072 0.000
vt 0.066 0.197 0.000
vt 0.010 0.253 0.000
vt 0.166 0.965 0.000
vt 0.122 0.917 0.000
vt 0.853 0.620 0.000
vt 0.803 0.667 0.000
vt 0.010 0.087 0.000
vt 0.070 0.136 0.000
vt 0.010 0.490 0.000
vt 0.010 0.564 0.000
vt 0.010 0.455 0.000
vt 0.433 0.502 0.000
vt 0.393 0.543 0.000
vt 0.370 0.487 0.000
vt 0.417 0.471 0.000
vt 0.461 0.523 0.000
vt 0.439 0.577 0.000
vt 0.493 0.450 0.000
vt 0.570 0.430 0.000
vt 0.576 0.363 0.000
vt 0.370 0.880 0.000
vt 0.474 0.880 0.000
vt 0.462 0.960 0.000
vt 0.219 0.920 0.000
vt 0.752 0.619 0.000
vt 0.370 0.738 0.000
vt 0.386 0.617 0.000
vt 0.439 0.669 0.000
vt 0.415 0.436 0.000
vt 0.410 0.362 0.000
vt 0.899 0.090 0.000
vt 0.899 0.098 0.000
vt 0.968 0.068 0.000
vt 0.948 0.086 0.000
vt 0.944 0.075 0.000
vt 0.927 0.115 0.000
vt 0.635 0.921 0.000
vt 0.610 0.943 0.000
vt 0.621 0.951 0.000
vt 0.635 0.954 0.000
vt 0.649 0.951 0.000
vt 0.661 0.942 0.000
vt 0.667 0.930 0.000
vt 0.667 0.917 0.000
vt 0.660 0.905 0.000
vt 0.649 0.896 0.000
vt 0.635 0.894 0.000
vt 0.621 0.897 0.000
vt 0.610 0.905 0.000
vt 0.603 0.917 0.000
vt 0.604 0.931 0.000
vt 0.610 0.981 0.000
vt 0.590 0.966 0.000
vt 0.636 0.986 0.000
vt 0.661 0.980 0.000
vt 0.681 0.965 0.000
vt 0.692 0.943 0.000
vt 0.692 0.942 0.000
vt 0.680 0.918 0.000
vt 0.669 0.907 0.000
vt 0.652 0.894 0.000
vt 0.635 0.890 0.000
vt 0.618 0.893 0.000
vt 0.603 0.903 0.000
vt 0.586 0.919 0.000
vt 0.577 0.941 0.000
vt 0.578 0.944 0.000
vt 0.585 0.974 0.000
vt 0.606 0.995 0.000
vt 0.636 1.001 0.000
vt 0.659 0.994 0.000
vt 0.685 0.972 0.000
vt 0.903 0.106 0.000
vt 0.919 0.063 0.000
vt 0.905 0.070 0.000
vt 0.933 0.066 0.000
vt 0.900 0.079 0.000
vt 0.939 0.114 0.000
vt 0.982 0.125 0.000
vt 0.948 0.103 0.000
vt 0.787 0.106 0.000
vt 0.731 0.116 0.000
vt 0.774 0.104 0.000
vt 0.765 0.092 0.000
vt 0.754 0.060 0.000
vt 0.795 0.105 0.000
vt 0.807 0.101 0.000
vt 0.813 0.095 0.000
vt 0.816 0.087 0.000
vt 0.816 0.082 0.000
vt 0.817 0.071 0.000
vt 0.815 0.066 0.000
vt 0.810 0.060 0.000
vt 0.798 0.054 0.000
vt 0.783 0.055 0.000
vt 0.771 0.064 0.000
vt 0.766 0.075 0.000
vt 0.768 0.925 0.000
vt 0.768 0.961 0.000
vt 0.751 0.957 0.000
vt 0.737 0.947 0.000
vt 0.729 0.933 0.000
vt 0.729 0.917 0.000
vt 0.737 0.902 0.000
vt 0.751 0.892 0.000
vt 0.768 0.888 0.000
vt 0.785 0.892 0.000
vt 0.799 0.902 0.000
vt 0.807 0.917 0.000
vt 0.807 0.933 0.000
vt 0.799 0.947 0.000
vt 0.785 0.957 0.000
vt 0.737 0.984 0.000
vt 0.768 0.990 0.000
vt 0.723 0.974 0.000
vt 0.718 0.961 0.000
vt 0.718 0.936 0.000
vt 0.719 0.924 0.000
vt 0.726 0.906 0.000
vt 0.739 0.892 0.000
vt 0.769 0.882 0.000
vt 0.789 0.880 0.000
vt 0.823 0.882 0.000
vt 0.824 0.884 0.000
vt 0.838 0.910 0.000
vt 0.838 0.939 0.000
vt 0.824 0.965 0.000
vt 0.799 0.984 0.000
vt 0.768 0.999 0.000
vt 0.735 0.987 0.000
vt 0.847 0.908 0.000
vt 0.848 0.947 0.000
vt 0.836 0.974 0.000
vt 0.806 0.995 0.000
# 274 texture coords

g Sphere02
f 1/1/1 2/2/2 3/3/3 
f 1/1/1 4/4/4 5/5/5 
f 5/5/5 6/6/6 1/1/1 
f 1/1/1 6/6/6 7/7/7 
f 1/1/1 7/7/7 8/8/8 
f 1/9/1 8/10/8 9/11/9 
f 1/12/1 9/13/9 10/14/10 
f 1/15/1 10/16/10 11/17/11 
f 1/18/1 11/19/11 12/20/12 
f 1/1/1 12/21/12 13/22/13 
f 1/1/1 13/22/13 14/23/14 
f 1/1/1 15/24/15 2/2/2 
f 16/25/16 3/3/3 2/2/2 
f 2/2/2 17/26/17 16/25/16 
f 18/27/18 7/28/7 6/29/6 
f 6/29/6 19/30/19 18/27/18 
f 20/31/20 8/32/8 7/28/7 
f 7/28/7 18/27/18 20/31/20 
f 21/33/21 9/34/9 8/35/8 
f 8/35/8 20/36/20 21/33/21 
f 22/37/22 10/14/10 9/13/9 
f 9/13/9 21/38/21 22/37/22 
f 23/39/23 11/17/11 10/16/10 
f 10/16/10 22/40/22 23/39/23 
f 24/41/24 12/42/12 11/43/11 
f 11/43/11 23/44/23 24/41/24 
f 25/45/25 13/46/13 12/47/12 
f 12/47/12 24/48/24 25/45/25 
f 26/49/26 14/50/14 13/46/13 
f 13/46/13 25/45/25 26/49/26 
f 17/26/17 2/2/2 15/24/15 
f 15/24/15 27/51/27 17/26/17 
f 28/52/28 16/53/16 17/54/17 
f 17/54/17 29/55/29 28/52/28 
f 30/56/30 31/57/31 16/53/16 
f 16/53/16 28/52/28 30/56/30 
f 32/58/32 19/30/19 31/59/31 
f 31/59/31 30/60/30 32/58/32 
f 33/61/33 18/27/18 19/30/19 
f 19/30/19 32/58/32 33/61/33 
f 34/62/34 20/31/20 18/27/18 
f 18/27/18 33/61/33 34/62/34 
f 35/63/35 21/33/21 20/36/20 
f 20/36/20 34/64/34 35/63/35 
f 36/65/36 22/37/22 21/38/21 
f 21/38/21 35/66/35 36/65/36 
f 37/67/37 23/39/23 22/40/22 
f 22/40/22 36/68/36 37/67/37 
f 38/69/38 24/41/24 23/44/23 
f 23/44/23 37/70/37 38/69/38 
f 39/71/39 25/45/25 24/48/24 
f 24/48/24 38/72/38 39/71/39 
f 40/73/40 26/49/26 25/45/25 
f 25/45/25 39/71/39 40/73/40 
f 41/74/41 42/75/42 26/49/26 
f 26/49/26 40/73/40 41/74/41 
f 43/76/43 27/77/27 42/78/42 
f 42/78/42 41/79/41 43/76/43 
f 29/55/29 17/54/17 27/80/27 
f 27/80/27 43/81/43 29/55/29 
f 44/82/44 28/52/28 29/55/29 
f 29/55/29 45/83/45 44/82/44 
f 46/84/46 30/56/30 28/52/28 
f 28/52/28 44/82/44 46/84/46 
f 47/85/47 32/58/32 30/60/30 
f 30/60/30 46/86/46 47/85/47 
f 48/87/48 33/61/33 32/58/32 
f 32/58/32 47/85/47 48/87/48 
f 49/88/49 34/62/34 33/61/33 
f 33/61/33 48/87/48 49/88/49 
f 50/89/50 35/63/35 34/64/34 
f 34/64/34 49/90/49 50/89/50 
f 51/91/51 36/92/36 35/63/35 
f 35/63/35 50/89/50 51/91/51 
f 52/93/52 37/70/37 36/92/36 
f 36/92/36 51/91/51 52/93/52 
f 53/94/53 38/69/38 37/70/37 
f 37/70/37 52/93/52 53/94/53 
f 54/95/54 39/71/39 38/72/38 
f 38/72/38 53/96/53 54/95/54 
f 55/97/55 40/73/40 39/71/39 
f 39/71/39 54/95/54 55/97/55 
f 56/98/56 41/74/41 40/73/40 
f 40/73/40 55/97/55 56/98/56 
f 57/99/57 43/81/43 41/100/41 
f 41/100/41 56/101/56 57/99/57 
f 45/83/45 29/55/29 43/81/43 
f 43/81/43 57/99/57 45/83/45 
f 58/102/58 44/82/44 45/83/45 
f 45/83/45 59/103/59 58/102/58 
f 60/104/60 46/84/46 44/82/44 
f 44/82/44 58/102/58 60/104/60 
f 61/105/61 47/85/47 46/86/46 
f 46/86/46 60/106/60 61/105/61 
f 62/107/62 48/87/48 47/85/47 
f 47/85/47 61/105/61 62/107/62 
f 63/108/63 49/88/49 48/87/48 
f 48/87/48 62/107/62 63/108/63 
f 64/109/64 50/89/50 49/90/49 
f 49/90/49 63/110/63 64/109/64 
f 65/111/65 51/112/51 50/113/50 
f 50/113/50 64/114/64 65/111/65 
f 66/115/66 52/116/52 51/117/51 
f 51/117/51 65/118/65 66/115/66 
f 67/119/67 53/94/53 52/93/52 
f 52/93/52 66/120/66 67/119/67 
f 68/121/68 54/95/54 53/96/53 
f 53/96/53 67/122/67 68/121/68 
f 69/123/69 55/97/55 54/95/54 
f 54/95/54 68/121/68 69/123/69 
f 70/124/70 56/98/56 55/97/55 
f 55/97/55 69/123/69 70/124/70 
f 71/125/71 57/126/57 56/127/56 
f 56/127/56 70/128/70 71/125/71 
f 59/103/59 45/83/45 57/99/57 
f 57/99/57 71/129/71 59/103/59 
f 72/130/72 58/131/58 59/132/59 
f 59/132/59 73/133/73 72/130/72 
f 74/134/74 60/135/60 58/131/58 
f 58/131/58 72/130/72 74/134/74 
f 75/136/75 61/137/61 60/135/60 
f 60/135/60 74/134/74 75/136/75 
f 76/138/76 62/107/62 61/105/61 
f 61/105/61 75/139/75 76/138/76 
f 77/140/77 63/108/63 62/107/62 
f 62/107/62 76/138/76 77/140/77 
f 78/141/78 64/109/64 63/110/63 
f 63/110/63 77/142/77 78/141/78 
f 79/143/79 65/111/65 64/114/64 
f 64/114/64 78/144/78 79/143/79 
f 80/145/80 66/115/66 65/118/65 
f 65/118/65 79/146/79 80/145/80 
f 81/147/81 67/119/67 66/120/66 
f 66/120/66 80/148/80 81/147/81 
f 82/149/82 68/121/68 67/122/67 
f 67/122/67 81/150/81 82/149/82 
f 83/151/83 69/123/69 68/121/68 
f 68/121/68 82/149/82 83/151/83 
f 84/152/84 70/153/70 69/154/69 
f 69/154/69 83/155/83 84/152/84 
f 85/156/85 71/157/71 70/153/70 
f 70/153/70 84/152/84 85/156/85 
f 73/133/73 59/132/59 71/157/71 
f 71/157/71 85/156/85 73/133/73 
f 86/158/86 72/130/72 73/133/73 
f 86/158/86 74/134/74 72/130/72 
f 86/158/86 75/136/75 74/134/74 
f 86/158/86 76/159/76 75/136/75 
f 86/158/86 77/160/77 76/159/76 
f 86/161/86 78/162/78 77/163/77 
f 86/164/86 79/143/79 78/144/78 
f 86/165/86 80/145/80 79/146/79 
f 86/166/86 81/167/81 80/168/80 
f 86/158/86 82/169/82 81/170/81 
f 86/158/86 83/155/83 82/169/82 
f 86/158/86 84/152/84 83/155/83 
f 86/158/86 85/156/85 84/152/84 
f 86/158/86 73/133/73 85/156/85 
f 3/3/3 87/171/87 88/172/88 
f 31/173/31 89/174/89 90/175/90 
f 6/6/6 5/5/5 91/176/91 
f 92/177/92 93/178/93 94/179/94 
f 92/177/92 94/179/94 95/180/95 
f 92/177/92 95/180/95 96/181/96 
f 92/177/92 96/181/96 97/182/97 
f 92/177/92 97/182/97 98/183/98 
f 92/177/92 98/183/98 99/184/99 
f 92/177/92 99/184/99 100/185/100 
f 92/177/92 100/185/100 101/186/101 
f 92/177/92 101/186/101 102/187/102 
f 92/177/92 102/187/102 103/188/103 
f 92/177/92 103/188/103 104/189/104 
f 92/177/92 104/189/104 105/190/105 
f 92/177/92 105/190/105 106/191/106 
f 92/177/92 106/191/106 93/178/93 
f 107/192/107 94/179/94 93/178/93 
f 93/178/93 108/193/108 107/192/107 
f 109/194/109 95/180/95 94/179/94 
f 94/179/94 107/192/107 109/194/109 
f 110/195/110 96/181/96 95/180/95 
f 95/180/95 109/194/109 110/195/110 
f 111/196/111 97/182/97 96/181/96 
f 96/181/96 110/195/110 111/196/111 
f 112/197/112 98/183/98 97/182/97 
f 97/182/97 111/196/111 112/197/112 
f 112/197/112 113/198/113 91/199/114 
f 112/197/112 91/199/114 99/184/99 
f 98/183/98 112/197/112 99/184/99 
f 99/184/99 91/199/114 5/200/115 
f 5/200/115 100/185/100 99/184/99 
f 100/185/100 5/200/115 4/201/116 
f 4/201/116 101/186/101 100/185/100 
f 4/201/116 114/202/117 102/187/102 
f 102/187/102 101/186/101 4/201/116 
f 114/202/117 88/203/118 103/188/103 
f 103/188/103 102/187/102 114/202/117 
f 88/203/118 87/204/119 104/189/104 
f 104/189/104 103/188/103 88/203/118 
f 87/204/119 115/205/120 105/190/105 
f 105/190/105 104/189/104 87/204/119 
f 115/205/120 116/206/121 117/207/122 
f 105/190/105 115/205/120 117/207/122 
f 105/190/105 117/207/122 106/191/106 
f 108/193/108 93/178/93 106/191/106 
f 106/191/106 117/207/122 108/193/108 
f 118/208/123 119/209/124 107/192/107 
f 107/192/107 108/193/108 118/208/123 
f 119/209/124 90/210/125 109/194/109 
f 109/194/109 107/192/107 119/209/124 
f 109/194/109 90/210/125 89/211/126 
f 89/211/126 110/195/110 109/194/109 
f 110/195/110 89/211/126 120/212/127 
f 120/212/127 111/196/111 110/195/110 
f 120/212/127 113/198/113 112/197/112 
f 112/197/112 111/196/111 120/212/127 
f 118/208/123 108/193/108 117/207/122 
f 117/207/122 116/206/121 118/208/123 
f 114/213/128 4/4/4 1/1/1 
f 114/213/128 1/1/1 3/3/3 
f 3/3/3 88/172/88 114/213/128 
f 118/214/129 116/215/130 16/25/16 
f 31/173/31 90/175/90 119/216/131 
f 119/216/131 16/25/16 31/173/31 
f 119/216/131 118/214/129 16/25/16 
f 115/217/132 3/3/3 16/25/16 
f 16/25/16 116/215/130 115/217/132 
f 115/217/132 87/171/87 3/3/3 
f 91/176/91 113/218/133 6/6/6 
f 19/219/19 6/6/6 113/218/133 
f 113/218/133 120/220/134 19/219/19 
f 31/173/31 19/219/19 120/220/134 
f 120/220/134 89/174/89 31/173/31 
f 121/221/135 14/23/14 26/222/26 
f 122/223/136 121/221/135 26/222/26 
f 123/224/137 122/223/136 26/222/26 
f 123/224/137 26/222/26 42/225/42 
f 14/23/14 121/221/135 124/226/138 
f 1/1/1 14/23/14 124/226/138 
f 1/1/1 124/226/138 125/227/139 
f 1/1/1 125/227/139 126/228/140 
f 15/24/15 1/1/1 126/228/140 
f 15/24/15 126/228/140 127/229/141 
f 15/24/15 127/229/141 128/230/142 
f 15/24/15 128/230/142 129/231/143 
f 15/24/15 129/231/143 130/232/144 
f 27/51/27 15/24/15 130/232/144 
f 27/51/27 130/232/144 131/233/145 
f 27/51/27 131/233/145 132/234/146 
f 27/51/27 132/234/146 133/235/147 
f 42/225/42 27/51/27 133/235/147 
f 42/225/42 133/235/147 134/236/148 
f 42/225/42 134/236/148 135/237/149 
f 123/224/137 42/225/42 135/237/149 
f 136/238/150 137/239/151 138/240/94 
f 136/238/150 138/240/94 139/241/152 
f 136/238/150 139/241/152 140/242/153 
f 136/238/150 140/242/153 141/243/154 
f 136/238/150 141/243/154 142/244/155 
f 136/238/150 142/244/155 143/245/156 
f 136/238/150 143/245/156 144/246/157 
f 136/238/150 144/246/157 145/247/158 
f 136/238/150 145/247/158 146/248/159 
f 136/238/150 146/248/159 147/249/103 
f 136/238/150 147/249/103 148/250/160 
f 136/238/150 148/250/160 149/251/161 
f 136/238/150 149/251/161 150/252/106 
f 136/238/150 150/252/106 137/239/151 
f 151/253/107 138/240/94 137/239/151 
f 137/239/151 152/254/108 151/253/107 
f 151/253/107 130/255/162 129/256/163 
f 151/253/107 129/256/163 139/241/152 
f 138/240/94 151/253/107 139/241/152 
f 139/241/152 129/256/163 128/257/164 
f 128/257/164 140/242/153 139/241/152 
f 127/258/165 126/259/166 142/244/155 
f 142/244/155 141/243/154 127/258/165 
f 126/259/166 125/260/167 143/245/156 
f 143/245/156 142/244/155 126/259/166 
f 143/245/156 125/260/167 124/261/168 
f 124/261/168 144/246/157 143/245/156 
f 121/262/169 122/263/170 153/264/171 
f 121/262/169 153/264/171 146/248/159 
f 145/247/158 121/262/169 146/248/159 
f 154/265/172 147/249/103 146/248/159 
f 146/248/159 153/264/171 154/265/172 
f 155/266/173 148/250/160 147/249/103 
f 147/249/103 154/265/172 155/266/173 
f 156/267/174 149/251/161 148/250/160 
f 148/250/160 155/266/173 156/267/174 
f 157/268/175 150/252/106 149/251/161 
f 149/251/161 156/267/174 157/268/175 
f 152/254/108 137/239/151 150/252/106 
f 150/252/106 157/268/175 152/254/108 
f 152/254/108 132/269/176 131/270/177 
f 131/270/177 151/253/107 152/254/108 
f 122/263/170 123/271/178 154/265/172 
f 154/265/172 153/264/171 122/263/170 
f 123/271/178 135/272/179 155/266/173 
f 155/266/173 154/265/172 123/271/178 
f 135/272/179 134/273/180 156/267/174 
f 156/267/174 155/266/173 135/272/179 
f 134/273/180 133/274/181 157/268/175 
f 157/268/175 156/267/174 134/273/180 
f 145/247/158 144/246/157 124/261/168 
f 124/261/168 121/262/169 145/247/158 
f 130/255/162 151/253/107 131/270/177 
f 127/258/165 141/243/154 140/242/153 
f 140/242/153 128/257/164 127/258/165 
f 132/269/176 152/254/108 157/268/175 
f 157/268/175 133/274/181 132/269/176 
# 310 faces

