# 3ds Max Wavefront OBJ Exporter v0.94b - (c)2007 guruware
# File Created: 28.11.2012 01:04:33

#
# object Box01
#

v  -0.500 0.000 0.500
v  -0.500 0.000 -0.500
v  0.500 0.000 -0.500
v  0.500 0.000 0.500
v  -0.500 1.000 0.500
v  0.500 1.000 0.500
v  0.500 1.000 -0.500
v  -0.500 1.000 -0.500
# 8 vertices

vn 0.000 -1.000 -0.000
vn 0.000 1.000 -0.000
vn 0.000 0.000 1.000
vn 1.000 0.000 -0.000
vn 0.000 0.000 -1.000
vn -1.000 0.000 -0.000
# 6 vertex normals

vt 1.000 0.000 0.000
vt 1.000 1.000 0.000
vt 0.000 1.000 0.000
vt 0.000 0.000 0.000
# 4 texture coords

g Box01
f 1/1/1 2/2/1 3/3/1 
f 3/3/1 4/4/1 1/1/1 
f 5/4/2 6/1/2 7/2/2 
f 7/2/2 8/3/2 5/4/2 
f 1/4/3 4/1/3 6/2/3 
f 6/2/3 5/3/3 1/4/3 
f 4/4/4 3/1/4 7/2/4 
f 7/2/4 6/3/4 4/4/4 
f 3/4/5 2/1/5 8/2/5 
f 8/2/5 7/3/5 3/4/5 
f 2/4/6 1/1/6 5/2/6 
f 5/2/6 8/3/6 2/4/6 
# 12 faces

